<svg width="450" height="500"
     xmlns="http://www.w3.org/2000/svg" xmlns:xlink="http://www.w3.org/1999/xlink">
    <g id="gTiles1">
        <svg width="45" height="45" x="0" y="0">
            <g id="tile1x1" opacity="1" fill="white" stroke="black" stroke-width="1">
                <rect x="0" y="0" width="45" height="45"/>
            </g>
        </svg>
    </g>
    <g id="gTiles2">
        <svg width="45" height="45" x="0" y="45">
            <g id="tile1x2" opacity="1" fill="white" stroke="black" stroke-width="1" >
                <rect x="0" y="0" width="45" height="45"/>
            </g>
        </svg>
        <svg width="45" height="45" x="45" y="0">
            <g id="tile2x1" opacity="1" fill="white" stroke="black" stroke-width="1" >
                <rect x="0" y="0" width="45" height="45"/>
                
            </g>
        </svg>
        <svg width="45" height="45" x="45" y="45">
            <g id="tile2x2" opacity="1" fill="white" stroke="black" stroke-width="1" >
                <rect x="0" y="0" width="45" height="45"/>
            </g>
        </svg>
    </g>
    <g id="gTiles3">
        <svg width="45" height="45" x="0" y="90">
            <g id="tile1x3" opacity="1" fill="white" stroke="black" stroke-width="1" >
                <rect x="0" y="0" width="45" height="45"/>
            </g>
        </svg>
        <svg width="45" height="45" x="45" y="90">
            <g id="tile2x3" opacity="1" fill="white" stroke="black" stroke-width="1" >
                <rect x="0" y="0" width="45" height="45"/>
                
            </g>
        </svg>
        <svg width="45" height="45" x="90" y="0">
            <g id="tile3x1" opacity="1" fill="white" stroke="black" stroke-width="1" >
                <rect x="0" y="0" width="45" height="45"/>
            </g>
        </svg>
        <svg width="45" height="45" x="90" y="45">
            <g id="tile3x2" opacity="1" fill="white" stroke="black" stroke-width="1" >
                <rect x="0" y="0" width="45" height="45"/>
                
            </g>
        </svg>
        <svg width="45" height="45" x="90" y="90">
            <g id="tile3x3" opacity="1" fill="white" stroke="black" stroke-width="1" >
                <rect x="0" y="0" width="45" height="45"/>
            </g>
        </svg>
    </g>
    <g id="gTiles4">
        <svg width="45" height="45" x="0" y="135">
            <g id="tile1x4" opacity="1" fill="white" stroke="black" stroke-width="1" >
                <rect x="0" y="0" width="45" height="45"/>
                
            </g>
        </svg>
        <svg width="45" height="45" x="45" y="135">
            <g id="tile2x4" opacity="1" fill="white" stroke="black" stroke-width="1" >
                <rect x="0" y="0" width="45" height="45"/>
            </g>
        </svg>
        <svg width="45" height="45" x="90" y="135">
            <g id="tile3x4" opacity="1" fill="white" stroke="black" stroke-width="1" >
                <rect x="0" y="0" width="45" height="45"/>
                
            </g>
        </svg>
        <svg width="45" height="45" x="135" y="0">
            <g id="tile4x1" opacity="1" fill="white" stroke="black" stroke-width="1" >
                <rect x="0" y="0" width="45" height="45"/>
                
            </g>
        </svg>
        <svg width="45" height="45" x="135" y="45">
            <g id="tile4x2" opacity="1" fill="white" stroke="black" stroke-width="1" >
                <rect x="0" y="0" width="45" height="45"/>
            </g>
        </svg>
        <svg width="45" height="45" x="135" y="90">
            <g id="tile4x3" opacity="1" fill="white" stroke="black" stroke-width="1" >
                <rect x="0" y="0" width="45" height="45"/>
                
            </g>
        </svg>
        <svg width="45" height="45" x="135" y="135">
            <g id="tile4x4" opacity="1" fill="white" stroke="black" stroke-width="1" >
                <rect x="0" y="0" width="45" height="45"/>
            </g>
        </svg>
    </g>
    <g id="gTiles5">
        <svg width="45" height="45" x="0" y="180">
            <g id="tile1x5" opacity="1" fill="white" stroke="black" stroke-width="1" >
                <rect x="0" y="0" width="45" height="45"/>
            </g>
        </svg>
        <svg width="45" height="45" x="45" y="180">
            <g id="tile2x5" opacity="1" fill="white" stroke="black" stroke-width="1" >
                <rect x="0" y="0" width="45" height="45"/>
                
            </g>
        </svg>
        <svg width="45" height="45" x="90" y="180">
            <g id="tile3x5" opacity="1" fill="white" stroke="black" stroke-width="1" >
                <rect x="0" y="0" width="45" height="45"/>
            </g>
        </svg>
        <svg width="45" height="45" x="135" y="180">
            <g id="tile4x5" opacity="1" fill="white" stroke="black" stroke-width="1" >
                <rect x="0" y="0" width="45" height="45"/>
                
            </g>
        </svg>
        <svg width="45" height="45" x="180" y="0">
            <g id="tile5x1" opacity="1" fill="white" stroke="black" stroke-width="1" >
                <rect x="0" y="0" width="45" height="45"/>
            </g>
        </svg>
        <svg width="45" height="45" x="180" y="45">
            <g id="tile5x2" opacity="1" fill="white" stroke="black" stroke-width="1" >
                <rect x="0" y="0" width="45" height="45"/>
                
            </g>
        </svg>
        <svg width="45" height="45" x="180" y="90">
            <g id="tile5x3" opacity="1" fill="white" stroke="black" stroke-width="1" >
                <rect x="0" y="0" width="45" height="45"/>
            </g>
        </svg>
        <svg width="45" height="45" x="180" y="135">
            <g id="tile5x4" opacity="1" fill="white" stroke="black" stroke-width="1" >
                <rect x="0" y="0" width="45" height="45"/>
                
            </g>
        </svg>
        <svg width="45" height="45" x="180" y="180">
            <g id="tile5x5" opacity="1" fill="white" stroke="black" stroke-width="1" >
                <rect x="0" y="0" width="45" height="45"/>
            </g>
        </svg>
    </g>
    <g id="gTiles6">
        <svg width="45" height="45" x="0" y="225">
            <g id="tile1x6" opacity="1" fill="white" stroke="black" stroke-width="1" >
                <rect x="0" y="0" width="45" height="45"/>
                
            </g>
        </svg>
        <svg width="45" height="45" x="45" y="225">
            <g id="tile2x6" opacity="1" fill="white" stroke="black" stroke-width="1" >
                <rect x="0" y="0" width="45" height="45"/>
            </g>
        </svg>
        <svg width="45" height="45" x="90" y="225">
            <g id="tile3x6" opacity="1" fill="white" stroke="black" stroke-width="1" >
                <rect x="0" y="0" width="45" height="45"/>
                
            </g>
        </svg>
        <svg width="45" height="45" x="135" y="225">
            <g id="tile4x6" opacity="1" fill="white" stroke="black" stroke-width="1" >
                <rect x="0" y="0" width="45" height="45"/>
            </g>
        </svg>
        <svg width="45" height="45" x="180" y="225">
            <g id="tile5x6" opacity="1" fill="white" stroke="black" stroke-width="1" >
                <rect x="0" y="0" width="45" height="45"/>
                
            </g>
        </svg>
        <svg width="45" height="45" x="225" y="0">
            <g id="tile6x1" opacity="1" fill="white" stroke="black" stroke-width="1" >
                <rect x="0" y="0" width="45" height="45"/>
                
            </g>
        </svg>
        <svg width="45" height="45" x="225" y="45">
            <g id="tile6x2" opacity="1" fill="white" stroke="black" stroke-width="1" >
                <rect x="0" y="0" width="45" height="45"/>
            </g>
        </svg>
        <svg width="45" height="45" x="225" y="90">
            <g id="tile6x3" opacity="1" fill="white" stroke="black" stroke-width="1" >
                <rect x="0" y="0" width="45" height="45"/>
                
            </g>
        </svg>
        <svg width="45" height="45" x="225" y="135">
            <g id="tile6x4" opacity="1" fill="white" stroke="black" stroke-width="1" >
                <rect x="0" y="0" width="45" height="45"/>
            </g>
        </svg>
        <svg width="45" height="45" x="225" y="180">
            <g id="tile6x5" opacity="1" fill="white" stroke="black" stroke-width="1" >
                <rect x="0" y="0" width="45" height="45"/>
                
            </g>
        </svg>
        <svg width="45" height="45" x="225" y="225">
            <g id="tile6x6" opacity="1" fill="white" stroke="black" stroke-width="1" >
                <rect x="0" y="0" width="45" height="45"/>
            </g>
        </svg>
    </g>
    <g id="gTiles7">
        <svg width="45" height="45" x="0" y="270">
            <g id="tile1x7" opacity="1" fill="white" stroke="black" stroke-width="1" >
                <rect x="0" y="0" width="45" height="45"/>
            </g>
        </svg>
        <svg width="45" height="45" x="45" y="270">
            <g id="tile2x7" opacity="1" fill="white" stroke="black" stroke-width="1" >
                <rect x="0" y="0" width="45" height="45"/>
                
            </g>
        </svg>
        <svg width="45" height="45" x="90" y="270">
            <g id="tile3x7" opacity="1" fill="white" stroke="black" stroke-width="1" >
                <rect x="0" y="0" width="45" height="45"/>
            </g>
        </svg>
        <svg width="45" height="45" x="135" y="270">
            <g id="tile4x7" opacity="1" fill="white" stroke="black" stroke-width="1" >
                <rect x="0" y="0" width="45" height="45"/>
                
            </g>
        </svg>
        <svg width="45" height="45" x="180" y="270">
            <g id="tile5x7" opacity="1" fill="white" stroke="black" stroke-width="1" >
                <rect x="0" y="0" width="45" height="45"/>
            </g>
        </svg>
        <svg width="45" height="45" x="225" y="270">
            <g id="tile6x7" opacity="1" fill="white" stroke="black" stroke-width="1" >
                <rect x="0" y="0" width="45" height="45"/>
                
            </g>
        </svg>
        <svg width="45" height="45" x="270" y="0">
            <g id="tile7x1" opacity="1" fill="white" stroke="black" stroke-width="1" >
                <rect x="0" y="0" width="45" height="45"/>
            </g>
        </svg>
        <svg width="45" height="45" x="270" y="45">
            <g id="tile7x2" opacity="1" fill="white" stroke="black" stroke-width="1" >
                <rect x="0" y="0" width="45" height="45"/>
                
            </g>
        </svg>
        <svg width="45" height="45" x="270" y="90">
            <g id="tile7x3" opacity="1" fill="white" stroke="black" stroke-width="1" >
                <rect x="0" y="0" width="45" height="45"/>
            </g>
        </svg>
        <svg width="45" height="45" x="270" y="135">
            <g id="tile7x4" opacity="1" fill="white" stroke="black" stroke-width="1" >
                <rect x="0" y="0" width="45" height="45"/>
                
            </g>
        </svg>
        <svg width="45" height="45" x="270" y="180">
            <g id="tile7x5" opacity="1" fill="white" stroke="black" stroke-width="1" >
                <rect x="0" y="0" width="45" height="45"/>
            </g>
        </svg>
        <svg width="45" height="45" x="270" y="225">
            <g id="tile7x6" opacity="1" fill="white" stroke="black" stroke-width="1" >
                <rect x="0" y="0" width="45" height="45"/>
                
            </g>
        </svg>
        <svg width="45" height="45" x="270" y="270">
            <g id="tile7x7" opacity="1" fill="white" stroke="black" stroke-width="1" >
                <rect x="0" y="0" width="45" height="45"/>
            </g>
        </svg>
    </g>
    <g id="gTiles8">
        <svg width="45" height="45" x="0" y="315">
            <g id="tile1x8" opacity="1" fill="white" stroke="black" stroke-width="1" >
                <rect x="0" y="0" width="45" height="45"/>

            </g>
        </svg>
        <svg width="45" height="45" x="45" y="315">
            <g id="tile2x8" opacity="1" fill="white" stroke="black" stroke-width="1" >
                <rect x="0" y="0" width="45" height="45"/>
            </g>
        </svg>
        <svg width="45" height="45" x="90" y="315">
            <g id="tile3x8" opacity="1" fill="white" stroke="black" stroke-width="1" >
                <rect x="0" y="0" width="45" height="45"/>

            </g>
        </svg>
        <svg width="45" height="45" x="135" y="315">
            <g id="tile4x8" opacity="1" fill="white" stroke="black" stroke-width="1" >
                <rect x="0" y="0" width="45" height="45"/>
            </g>
        </svg>
        <svg width="45" height="45" x="180" y="315">
            <g id="tile5x8" opacity="1" fill="white" stroke="black" stroke-width="1" >
                <rect x="0" y="0" width="45" height="45"/>

            </g>
        </svg>
        <svg width="45" height="45" x="225" y="315">
            <g id="tile6x8" opacity="1" fill="white" stroke="black" stroke-width="1" >
                <rect x="0" y="0" width="45" height="45"/>
            </g>
        </svg>
        <svg width="45" height="45" x="270" y="315">
            <g id="tile7x8" opacity="1" fill="white" stroke="black" stroke-width="1" >
                <rect x="0" y="0" width="45" height="45"/>

            </g>
        </svg>
        <svg width="45" height="45" x="315" y="0">
            <g id="tile8x1" opacity="1" fill="white" stroke="black" stroke-width="1" >
                <rect x="0" y="0" width="45" height="45"/>

            </g>
        </svg>
        <svg width="45" height="45" x="315" y="45">
            <g id="tile8x2" opacity="1" fill="white" stroke="black" stroke-width="1" >
                <rect x="0" y="0" width="45" height="45"/>
            </g>
        </svg>
        <svg width="45" height="45" x="315" y="90">
            <g id="tile8x3" opacity="1" fill="white" stroke="black" stroke-width="1" >
                <rect x="0" y="0" width="45" height="45"/>

            </g>
        </svg>
        <svg width="45" height="45" x="315" y="135">
            <g id="tile8x4" opacity="1" fill="white" stroke="black" stroke-width="1" >
                <rect x="0" y="0" width="45" height="45"/>
            </g>
        </svg>
        <svg width="45" height="45" x="315" y="180">
            <g id="tile8x5" opacity="1" fill="white" stroke="black" stroke-width="1" >
                <rect x="0" y="0" width="45" height="45"/>

            </g>
        </svg>
        <svg width="45" height="45" x="315" y="225">
            <g id="tile8x6" opacity="1" fill="white" stroke="black" stroke-width="1" >
                <rect x="0" y="0" width="45" height="45"/>
            </g>
        </svg>
        <svg width="45" height="45" x="315" y="270">
            <g id="tile8x7" opacity="1" fill="white" stroke="black" stroke-width="1" >
                <rect x="0" y="0" width="45" height="45"/>

            </g>
        </svg>
        <svg width="45" height="45" x="315" y="315">
            <g id="tile8x8" opacity="1" fill="white" stroke="black" stroke-width="1" >
                <rect x="0" y="0" width="45" height="45"/>
            </g>
        </svg>
    </g>
    <g id="gTiles9">
        <svg width="45" height="45" x="0" y="360">
            <g id="tile1x9" opacity="1" fill="white" stroke="black" stroke-width="1" >
                <rect x="0" y="0" width="45" height="45"/>

            </g>
        </svg>
        <svg width="45" height="45" x="45" y="360">
            <g id="tile2x9" opacity="1" fill="white" stroke="black" stroke-width="1" >
                <rect x="0" y="0" width="45" height="45"/>
            </g>
        </svg>
        <svg width="45" height="45" x="90" y="360">
            <g id="tile3x9" opacity="1" fill="white" stroke="black" stroke-width="1" >
                <rect x="0" y="0" width="45" height="45"/>

            </g>
        </svg>
        <svg width="45" height="45" x="135" y="360">
            <g id="tile4x9" opacity="1" fill="white" stroke="black" stroke-width="1" >
                <rect x="0" y="0" width="45" height="45"/>
            </g>
        </svg>
        <svg width="45" height="45" x="180" y="360">
            <g id="tile5x9" opacity="1" fill="white" stroke="black" stroke-width="1" >
                <rect x="0" y="0" width="45" height="45"/>

            </g>
        </svg>
        <svg width="45" height="45" x="225" y="360">
            <g id="tile6x9" opacity="1" fill="white" stroke="black" stroke-width="1" >
                <rect x="0" y="0" width="45" height="45"/>
            </g>
        </svg>
        <svg width="45" height="45" x="270" y="360">
            <g id="tile7x9" opacity="1" fill="white" stroke="black" stroke-width="1" >
                <rect x="0" y="0" width="45" height="45"/>

            </g>
        </svg>
        <svg width="45" height="45" x="315" y="360">
            <g id="tile8x9" opacity="1" fill="white" stroke="black" stroke-width="1" >
                <rect x="0" y="0" width="45" height="45"/>

            </g>
        </svg>
        <svg width="45" height="45" x="360" y="0">
            <g id="tile9x1" opacity="1" fill="white" stroke="black" stroke-width="1" >
                <rect x="0" y="0" width="45" height="45"/>

            </g>
        </svg>
        <svg width="45" height="45" x="360" y="45">
            <g id="tile9x2" opacity="1" fill="white" stroke="black" stroke-width="1" >
                <rect x="0" y="0" width="45" height="45"/>
            </g>
        </svg>
        <svg width="45" height="45" x="360" y="90">
            <g id="tile9x3" opacity="1" fill="white" stroke="black" stroke-width="1" >
                <rect x="0" y="0" width="45" height="45"/>

            </g>
        </svg>
        <svg width="45" height="45" x="360" y="135">
            <g id="tile9x4" opacity="1" fill="white" stroke="black" stroke-width="1" >
                <rect x="0" y="0" width="45" height="45"/>
            </g>
        </svg>
        <svg width="45" height="45" x="360" y="180">
            <g id="tile9x5" opacity="1" fill="white" stroke="black" stroke-width="1" >
                <rect x="0" y="0" width="45" height="45"/>

            </g>
        </svg>
        <svg width="45" height="45" x="360" y="225">
            <g id="tile9x6" opacity="1" fill="white" stroke="black" stroke-width="1" >
                <rect x="0" y="0" width="45" height="45"/>
            </g>
        </svg>
        <svg width="45" height="45" x="360" y="270">
            <g id="tile9x7" opacity="1" fill="white" stroke="black" stroke-width="1" >
                <rect x="0" y="0" width="45" height="45"/>

            </g>
        </svg>
        <svg width="45" height="45" x="360" y="315">
            <g id="tile9x8" opacity="1" fill="white" stroke="black" stroke-width="1" >
                <rect x="0" y="0" width="45" height="45"/>
            </g>
        </svg>
        <svg width="45" height="45" x="360" y="360">
            <g id="tile9x9" opacity="1" fill="white" stroke="black" stroke-width="1" >
                <rect x="0" y="0" width="45" height="45"/>
            </g>
        </svg>
    </g>
    <g id="gTiles10">
        <svg width="45" height="45" x="0" y="405">
            <g id="tile1x10" opacity="1" fill="white" stroke="black" stroke-width="1" >
                <rect x="0" y="0" width="45" height="45"/>

            </g>
        </svg>
        <svg width="45" height="45" x="45" y="405">
            <g id="tile2x10" opacity="1" fill="white" stroke="black" stroke-width="1" >
                <rect x="0" y="0" width="45" height="45"/>
            </g>
        </svg>
        <svg width="45" height="45" x="90" y="405">
            <g id="tile3x10" opacity="1" fill="white" stroke="black" stroke-width="1" >
                <rect x="0" y="0" width="45" height="45"/>

            </g>
        </svg>
        <svg width="45" height="45" x="135" y="405">
            <g id="tile4x10" opacity="1" fill="white" stroke="black" stroke-width="1" >
                <rect x="0" y="0" width="45" height="45"/>
            </g>
        </svg>
        <svg width="45" height="45" x="180" y="405">
            <g id="tile5x10" opacity="1" fill="white" stroke="black" stroke-width="1" >
                <rect x="0" y="0" width="45" height="45"/>

            </g>
        </svg>
        <svg width="45" height="45" x="225" y="405">
            <g id="tile6x10" opacity="1" fill="white" stroke="black" stroke-width="1" >
                <rect x="0" y="0" width="45" height="45"/>
            </g>
        </svg>
        <svg width="45" height="45" x="270" y="405">
            <g id="tile7x10" opacity="1" fill="white" stroke="black" stroke-width="1" >
                <rect x="0" y="0" width="45" height="45"/>

            </g>
        </svg>
        <svg width="45" height="45" x="315" y="405">
            <g id="tile8x10" opacity="1" fill="white" stroke="black" stroke-width="1" >
                <rect x="0" y="0" width="45" height="45"/>

            </g>
        </svg>
        <svg width="45" height="45" x="360" y="405">
            <g id="tile9x10" opacity="1" fill="white" stroke="black" stroke-width="1" >
                <rect x="0" y="0" width="45" height="45"/>

            </g>
        </svg>
        <svg width="45" height="45" x="405" y="0">
            <g id="tile10x1" opacity="1" fill="white" stroke="black" stroke-width="1" >
                <rect x="0" y="0" width="45" height="45"/>

            </g>
        </svg>
        <svg width="45" height="45" x="405" y="45">
            <g id="tile10x2" opacity="1" fill="white" stroke="black" stroke-width="1" >
                <rect x="0" y="0" width="45" height="45"/>
            </g>
        </svg>
        <svg width="45" height="45" x="405" y="90">
            <g id="tile10x3" opacity="1" fill="white" stroke="black" stroke-width="1" >
                <rect x="0" y="0" width="45" height="45"/>

            </g>
        </svg>
        <svg width="45" height="45" x="405" y="135">
            <g id="tile10x4" opacity="1" fill="white" stroke="black" stroke-width="1" >
                <rect x="0" y="0" width="45" height="45"/>
            </g>
        </svg>
        <svg width="45" height="45" x="405" y="180">
            <g id="tile10x5" opacity="1" fill="white" stroke="black" stroke-width="1" >
                <rect x="0" y="0" width="45" height="45"/>

            </g>
        </svg>
        <svg width="45" height="45" x="405" y="225">
            <g id="tile10x6" opacity="1" fill="white" stroke="black" stroke-width="1" >
                <rect x="0" y="0" width="45" height="45"/>
            </g>
        </svg>
        <svg width="45" height="45" x="405" y="270">
            <g id="tile10x7" opacity="1" fill="white" stroke="black" stroke-width="1" >
                <rect x="0" y="0" width="45" height="45"/>

            </g>
        </svg>
        <svg width="45" height="45" x="405" y="315">
            <g id="tile10x8" opacity="1" fill="white" stroke="black" stroke-width="1" >
                <rect x="0" y="0" width="45" height="45"/>
            </g>
        </svg>
        <svg width="45" height="45" x="405" y="360">
            <g id="tile10x9" opacity="1" fill="white" stroke="black" stroke-width="1" >
                <rect x="0" y="0" width="45" height="45"/>
            </g>
        </svg>
        <svg width="45" height="45" x="405" y="405">
            <g id="tile10x10" opacity="1" fill="white" stroke="black" stroke-width="1">
                <rect x="0" y="0" width="45" height="45"/>
            </g>
        </svg>
        <image xlink:href="Drone.png" id="drone" x="0" y="0" width="45" height="45"/>

        <text id="visited1x1" x="0" y="45" fill="black" font-size="20.0" text="V"/>
        <text id="visited2x1" x="45" y="45" fill="black" font-size="20.0" text="V"/>
        <text id="visited3x1" x="90" y="45" fill="black" font-size="20.0" text="V"/>
        <text id="visited4x1" x="135" y="45" fill="black" font-size="20.0" text="V"/>
        <text id="visited5x1" x="180" y="45" fill="black" font-size="20.0" text="V"/>
        <text id="visited6x1" x="225" y="45" fill="black" font-size="20.0" text="V"/>
        <text id="visited7x1" x="270" y="45" fill="black" font-size="20.0" text="V"/>
        <text id="visited8x1" x="315" y="45" fill="black" font-size="20.0" text="V"/>
        <text id="visited9x1" x="360" y="45" fill="black" font-size="20.0" text="V"/>
        <text id="visited10x1" x="405" y="45" fill="black" font-size="20.0" text="V"/>

        <text id="visited1x2" x="0" y="90" fill="black" font-size="20.0" text="V"/>
        <text id="visited2x2" x="45" y="90" fill="black" font-size="20.0" text="V"/>
        <text id="visited3x2" x="90" y="90" fill="black" font-size="20.0" text="V"/>
        <text id="visited4x2" x="135" y="90" fill="black" font-size="20.0" text="V"/>
        <text id="visited5x2" x="180" y="90" fill="black" font-size="20.0" text="V"/>
        <text id="visited6x2" x="225" y="90" fill="black" font-size="20.0" text="V"/>
        <text id="visited7x2" x="270" y="90" fill="black" font-size="20.0" text="V"/>
        <text id="visited8x2" x="315" y="90" fill="black" font-size="20.0" text="V"/>
        <text id="visited9x2" x="360" y="90" fill="black" font-size="20.0" text="V"/>
        <text id="visited10x2" x="405" y="90" fill="black" font-size="20.0" text="V"/>

        <text id="visited1x3" x="0" y="135" fill="black" font-size="20.0" text="V"/>
        <text id="visited2x3" x="45" y="135" fill="black" font-size="20.0" text="V"/>
        <text id="visited3x3" x="90" y="135" fill="black" font-size="20.0" text="V"/>
        <text id="visited4x3" x="135" y="135" fill="black" font-size="20.0" text="V"/>
        <text id="visited5x3" x="180" y="135" fill="black" font-size="20.0" text="V"/>
        <text id="visited6x3" x="225" y="135" fill="black" font-size="20.0" text="V"/>
        <text id="visited7x3" x="270" y="135" fill="black" font-size="20.0" text="V"/>
        <text id="visited8x3" x="315" y="135" fill="black" font-size="20.0" text="V"/>
        <text id="visited9x3" x="360" y="135" fill="black" font-size="20.0" text="V"/>
        <text id="visited10x3" x="405" y="135" fill="black" font-size="20.0" text="V"/>

        <text id="visited1x4" x="0" y="180" fill="black" font-size="20.0" text="V"/>
        <text id="visited2x4" x="45" y="180" fill="black" font-size="20.0" text="V"/>
        <text id="visited3x4" x="90" y="180" fill="black" font-size="20.0" text="V"/>
        <text id="visited4x4" x="135" y="180" fill="black" font-size="20.0" text="V"/>
        <text id="visited5x4" x="180" y="180" fill="black" font-size="20.0" text="V"/>
        <text id="visited6x4" x="225" y="180" fill="black" font-size="20.0" text="V"/>
        <text id="visited7x4" x="270" y="180" fill="black" font-size="20.0" text="V"/>
        <text id="visited8x4" x="315" y="180" fill="black" font-size="20.0" text="V"/>
        <text id="visited9x4" x="360" y="180" fill="black" font-size="20.0" text="V"/>
        <text id="visited10x4" x="405" y="180" fill="black" font-size="20.0" text="V"/>

        <text id="visited1x5" x="0" y="225" fill="black" font-size="20.0" text="V"/>
        <text id="visited2x5" x="45" y="225" fill="black" font-size="20.0" text="V"/>
        <text id="visited3x5" x="90" y="225" fill="black" font-size="20.0" text="V"/>
        <text id="visited4x5" x="135" y="225" fill="black" font-size="20.0" text="V"/>
        <text id="visited5x5" x="180" y="225" fill="black" font-size="20.0" text="V"/>
        <text id="visited6x5" x="225" y="225" fill="black" font-size="20.0" text="V"/>
        <text id="visited7x5" x="270" y="225" fill="black" font-size="20.0" text="V"/>
        <text id="visited8x5" x="315" y="225" fill="black" font-size="20.0" text="V"/>
        <text id="visited9x5" x="360" y="225" fill="black" font-size="20.0" text="V"/>
        <text id="visited10x5" x="405" y="225" fill="black" font-size="20.0" text="V"/>

        <text id="visited1x6" x="0" y="270" fill="black" font-size="20.0" text="V"/>
        <text id="visited2x6" x="45" y="270" fill="black" font-size="20.0" text="V"/>
        <text id="visited3x6" x="90" y="270" fill="black" font-size="20.0" text="V"/>
        <text id="visited4x6" x="135" y="270" fill="black" font-size="20.0" text="V"/>
        <text id="visited5x6" x="180" y="270" fill="black" font-size="20.0" text="V"/>
        <text id="visited6x6" x="225" y="270" fill="black" font-size="20.0" text="V"/>
        <text id="visited7x6" x="270" y="270" fill="black" font-size="20.0" text="V"/>
        <text id="visited8x6" x="315" y="270" fill="black" font-size="20.0" text="V"/>
        <text id="visited9x6" x="360" y="270" fill="black" font-size="20.0" text="V"/>
        <text id="visited10x6" x="405" y="270" fill="black" font-size="20.0" text="V"/>

        <text id="visited1x7" x="0" y="315" fill="black" font-size="20.0" text="V"/>
        <text id="visited2x7" x="45" y="315" fill="black" font-size="20.0" text="V"/>
        <text id="visited3x7" x="90" y="315" fill="black" font-size="20.0" text="V"/>
        <text id="visited4x7" x="135" y="315" fill="black" font-size="20.0" text="V"/>
        <text id="visited5x7" x="180" y="315" fill="black" font-size="20.0" text="V"/>
        <text id="visited6x7" x="225" y="315" fill="black" font-size="20.0" text="V"/>
        <text id="visited7x7" x="270" y="315" fill="black" font-size="20.0" text="V"/>
        <text id="visited8x7" x="315" y="315" fill="black" font-size="20.0" text="V"/>
        <text id="visited9x7" x="360" y="315" fill="black" font-size="20.0" text="V"/>
        <text id="visited10x7" x="405" y="315" fill="black" font-size="20.0" text="V"/>

        <text id="visited1x8" x="0" y="360" fill="black" font-size="20.0" text="V"/>
        <text id="visited2x8" x="45" y="360" fill="black" font-size="20.0" text="V"/>
        <text id="visited3x8" x="90" y="360" fill="black" font-size="20.0" text="V"/>
        <text id="visited4x8" x="135" y="360" fill="black" font-size="20.0" text="V"/>
        <text id="visited5x8" x="180" y="360" fill="black" font-size="20.0" text="V"/>
        <text id="visited6x8" x="225" y="360" fill="black" font-size="20.0" text="V"/>
        <text id="visited7x8" x="270" y="360" fill="black" font-size="20.0" text="V"/>
        <text id="visited8x8" x="315" y="360" fill="black" font-size="20.0" text="V"/>
        <text id="visited9x8" x="360" y="360" fill="black" font-size="20.0" text="V"/>
        <text id="visited10x8" x="405" y="360" fill="black" font-size="20.0" text="V"/>

        <text id="visited1x9" x="0" y="405" fill="black" font-size="20.0" text="V"/>
        <text id="visited2x9" x="45" y="405" fill="black" font-size="20.0" text="V"/>
        <text id="visited3x9" x="90" y="405" fill="black" font-size="20.0" text="V"/>
        <text id="visited4x9" x="135" y="405" fill="black" font-size="20.0" text="V"/>
        <text id="visited5x9" x="180" y="405" fill="black" font-size="20.0" text="V"/>
        <text id="visited6x9" x="225" y="405" fill="black" font-size="20.0" text="V"/>
        <text id="visited7x9" x="270" y="405" fill="black" font-size="20.0" text="V"/>
        <text id="visited8x9" x="315" y="405" fill="black" font-size="20.0" text="V"/>
        <text id="visited9x9" x="360" y="405" fill="black" font-size="20.0" text="V"/>
        <text id="visited10x9" x="405" y="405" fill="black" font-size="20.0" text="V"/>

        <text id="visited1x10" x="0" y="450" fill="black" font-size="20.0" text="V"/>
        <text id="visited2x10" x="45" y="450" fill="black" font-size="20.0" text="V"/>
        <text id="visited3x10" x="90" y="450" fill="black" font-size="20.0" text="V"/>
        <text id="visited4x10" x="135" y="450" fill="black" font-size="20.0" text="V"/>
        <text id="visited5x10" x="180" y="450" fill="black" font-size="20.0" text="V"/>
        <text id="visited6x10" x="225" y="450" fill="black" font-size="20.0" text="V"/>
        <text id="visited7x10" x="270" y="450" fill="black" font-size="20.0" text="V"/>
        <text id="visited8x10" x="315" y="450" fill="black" font-size="20.0" text="V"/>
        <text id="visited9x10" x="360" y="450" fill="black" font-size="20.0" text="V"/>
        <text id="visited10x10" x="405" y="450" fill="black" font-size="20.0" text="V"/>
    </g>
</svg>
